P2
# CREATOR: GIMP PNM Filter Version 1.1
78 30
255
255
255
255
255
255
255
255
255
255
255
255
255
255
255
255
255
255
255
255
255
255
255
255
255
255
255
255
255
255
255
255
255
255
255
255
255
255
255
255
255
255
255
255
255
255
255
255
255
255
255
255
255
255
255
255
255
255
255
255
255
255
255
255
255
255
255
255
255
255
255
255
255
255
255
255
255
255
255
255
255
255
255
255
255
255
255
255
255
255
255
255
255
255
254
230
141
56
7
0
11
61
151
234
254
255
255
255
255
255
255
255
255
255
255
255
255
255
255
255
255
255
255
255
255
255
255
255
255
255
255
255
255
255
255
255
255
255
255
255
255
255
255
255
255
255
255
255
255
255
255
255
255
255
255
255
255
255
255
255
255
255
255
255
255
255
255
255
255
255
255
244
149
14
0
0
4
8
3
0
0
23
166
247
255
255
255
255
255
255
255
255
255
255
255
255
255
255
255
255
255
255
255
255
255
255
255
255
255
255
255
255
255
255
255
255
255
255
255
255
255
255
255
255
255
255
255
255
255
255
255
255
255
255
255
255
255
255
255
255
255
255
255
255
255
255
255
255
242
110
0
0
29
74
118
134
114
71
23
0
0
128
251
255
255
255
255
255
255
255
255
255
255
255
255
255
255
255
255
255
255
255
255
255
255
255
255
255
255
255
255
255
255
255
255
255
255
255
255
255
255
255
255
255
255
255
255
255
255
255
255
255
255
255
255
255
255
255
255
255
255
255
255
255
255
255
130
0
0
77
189
255
255
255
255
253
179
63
0
0
144
255
255
255
255
255
255
255
255
255
255
255
255
255
255
255
255
255
255
255
255
255
255
255
255
255
255
255
255
255
255
255
255
255
255
255
255
255
255
255
255
255
255
255
255
255
255
255
255
255
255
255
255
255
255
255
255
255
255
255
255
255
255
206
3
0
84
234
255
255
255
255
255
255
255
227
60
0
11
220
255
255
255
255
255
255
255
255
255
255
255
255
255
255
255
255
255
255
255
255
255
255
255
255
255
255
255
255
255
255
255
255
255
255
255
255
255
255
255
255
255
255
255
255
255
255
255
255
255
255
255
255
255
255
255
255
255
255
255
255
255
85
0
41
216
255
255
255
255
255
255
255
255
255
210
14
0
56
73
47
58
106
201
255
255
255
255
255
255
255
255
255
255
255
255
255
255
255
255
255
255
255
255
255
255
255
255
255
255
255
255
255
255
255
255
255
255
255
255
255
255
255
255
255
255
255
255
255
255
255
255
255
255
255
255
255
255
255
249
0
5
117
255
255
255
255
255
255
255
255
255
255
255
93
1
1
0
0
0
3
4
88
250
255
255
255
255
255
255
255
255
255
255
255
255
255
255
255
255
255
255
255
255
255
255
255
255
255
255
255
255
255
255
255
255
255
255
255
255
255
255
255
255
255
255
255
255
255
255
255
255
255
255
255
255
255
193
0
20
185
255
255
255
255
255
255
255
255
255
255
255
176
2
5
32
70
47
10
1
0
44
246
255
255
255
255
255
255
255
255
255
255
255
255
255
255
255
255
255
255
255
255
255
255
255
255
255
255
255
255
255
255
255
255
255
255
255
255
255
255
255
255
255
255
255
255
255
255
255
255
255
255
251
242
147
0
28
221
255
255
255
255
255
255
255
255
255
255
255
237
67
196
255
255
255
227
85
6
0
77
255
255
255
255
255
255
255
255
255
255
255
255
255
255
255
255
255
255
255
255
255
255
255
255
255
255
255
255
255
255
255
255
255
255
255
255
255
255
255
255
255
255
255
255
255
255
255
255
255
217
143
67
14
0
26
219
255
255
255
255
255
255
255
255
255
255
255
255
255
255
255
255
255
255
255
98
0
5
177
255
255
255
255
255
255
255
255
255
255
255
255
255
255
255
255
255
255
255
255
255
255
255
255
255
255
255
255
255
255
255
255
255
255
255
255
255
255
255
255
255
255
255
255
255
255
251
160
40
0
0
0
8
30
195
255
255
255
255
255
255
255
255
255
255
255
255
255
255
255
255
255
255
255
247
23
0
73
255
255
255
255
255
255
255
255
255
255
255
255
255
255
255
255
255
255
255
255
255
255
255
255
255
255
255
255
255
255
255
255
255
255
255
255
255
255
255
255
255
255
255
255
255
252
142
11
0
16
104
161
178
184
232
255
255
255
255
255
255
255
255
255
255
255
255
255
255
255
255
255
255
255
255
128
42
82
252
255
255
255
255
255
255
255
255
255
255
255
255
255
255
255
255
255
255
255
255
255
255
255
255
255
255
255
255
255
255
255
255
255
255
255
255
255
255
255
255
255
255
255
254
185
4
0
61
195
244
255
255
255
255
255
255
255
255
255
255
255
255
255
255
255
255
255
255
255
255
255
255
255
255
240
222
227
253
255
255
255
255
255
255
255
255
255
255
255
255
255
255
255
255
255
255
255
255
255
255
255
255
255
255
255
255
255
255
255
255
255
255
255
255
255
255
255
255
255
255
255
249
34
0
55
214
255
255
255
255
255
255
255
255
255
255
255
255
255
255
255
255
255
255
255
255
255
255
255
255
255
255
255
255
255
255
255
255
255
255
255
255
255
255
255
255
255
255
255
255
255
254
255
255
255
255
255
255
255
255
255
255
255
255
255
255
255
255
255
255
255
255
255
255
255
255
255
255
255
168
0
19
166
255
255
255
255
255
255
255
255
255
255
171
79
77
77
76
84
132
229
255
255
222
82
124
230
255
255
255
255
85
105
200
255
255
255
194
26
242
255
255
255
255
255
255
254
111
107
255
198
69
44
46
46
73
133
221
255
255
255
255
255
248
159
38
10
29
98
234
255
255
255
255
255
255
255
78
0
63
251
255
255
255
255
255
255
255
255
255
255
132
0
0
0
0
0
0
5
187
255
201
0
44
215
255
255
255
255
0
14
167
255
255
255
250
12
138
255
255
255
255
255
255
236
8
168
255
183
30
121
146
139
108
41
14
131
243
255
255
253
135
5
123
179
145
35
208
255
255
255
255
255
255
255
21
3
112
255
255
255
255
255
255
255
255
255
255
255
134
2
10
95
90
84
39
0
16
239
203
0
48
216
255
255
255
255
0
19
169
255
255
255
255
111
37
255
255
255
255
255
255
134
28
255
255
183
34
223
255
255
255
255
164
21
126
249
255
246
14
140
255
255
255
255
255
255
255
255
255
255
255
255
0
11
144
255
255
255
255
255
255
255
255
255
255
255
134
2
31
255
255
255
205
32
0
171
206
0
48
216
255
255
255
255
0
19
169
255
255
255
255
219
7
187
255
255
255
255
255
30
125
255
255
183
34
215
255
255
255
255
255
160
21
202
255
243
0
179
255
255
255
255
255
255
255
255
255
255
255
255
2
10
139
255
255
255
255
255
255
255
255
255
255
255
134
2
29
255
255
255
255
55
0
138
207
0
48
216
255
255
255
255
0
19
169
255
255
255
255
255
69
85
255
255
255
255
183
2
233
255
255
183
34
215
255
255
255
255
255
250
50
121
251
250
40
73
234
255
255
255
255
255
255
255
255
255
255
255
34
0
98
255
255
255
255
255
255
255
255
255
255
255
134
2
30
255
255
255
187
25
0
180
206
0
48
216
255
255
255
255
0
19
169
255
255
255
255
255
180
21
223
255
255
255
66
83
255
255
255
183
34
215
255
255
255
255
255
255
96
70
247
254
189
29
35
134
242
255
255
255
255
255
255
255
255
255
100
0
52
231
255
255
255
255
255
255
255
255
255
255
134
2
19
80
56
49
18
0
34
248
203
0
48
216
255
255
255
255
0
19
169
255
255
255
255
255
235
44
139
255
255
220
4
201
255
255
255
183
34
215
255
255
255
255
255
255
118
62
247
255
254
220
112
14
20
165
255
255
255
255
255
255
255
255
202
0
5
135
255
255
255
255
255
255
255
255
255
255
134
2
19
57
0
0
0
38
215
255
203
0
48
216
255
255
255
255
0
19
169
255
255
255
255
255
249
125
64
249
255
119
49
255
255
255
255
183
34
215
255
255
255
255
255
255
101
68
247
255
255
255
255
231
93
0
168
255
255
255
255
255
255
255
251
75
0
25
179
255
255
255
255
255
255
255
255
255
134
2
29
223
16
0
72
236
255
255
203
0
48
216
255
255
255
255
0
19
169
255
255
255
255
255
255
205
36
189
255
33
154
255
255
255
255
183
34
215
255
255
255
255
255
255
58
113
250
255
255
255
255
255
255
84
34
255
255
255
255
255
255
255
255
216
26
0
19
152
223
246
254
254
254
254
254
255
133
2
30
255
172
10
0
133
250
255
211
0
36
194
255
255
255
219
0
22
181
255
255
255
255
255
255
235
79
128
172
30
237
255
255
255
255
183
34
215
255
255
255
255
255
178
25
197
255
255
255
255
255
255
255
164
2
255
255
255
255
255
255
255
255
255
187
34
0
0
51
114
137
136
136
136
136
142
71
1
29
255
252
136
4
0
154
255
240
28
0
71
169
187
169
56
0
45
234
255
255
255
255
255
255
255
154
65
47
113
249
255
255
255
255
183
34
223
255
255
255
255
188
49
106
245
255
249
234
255
255
255
255
102
36
255
255
255
255
255
255
255
255
255
255
201
88
3
0
0
0
0
0
0
0
0
0
0
26
255
255
245
102
0
5
170
255
173
18
0
0
18
0
0
23
176
255
255
255
255
255
255
255
255
212
51
0
196
255
255
255
255
255
183
28
133
160
155
134
88
42
107
235
255
255
207
56
139
178
178
114
11
166
255
255
255
255
255
255
255
255
255
255
255
237
191
132
75
44
45
45
45
45
45
45
45
70
255
255
255
236
92
42
68
223
255
196
112
26
0
34
121
203
255
255
255
255
255
255
255
255
255
254
115
77
235
255
255
255
255
255
198
70
57
61
61
90
127
191
245
255
255
255
236
126
61
26
28
75
174
251
255
255
255
255
255
255
255
255
255
255
255
255
255
255
255
255
255
255
255
255
255
255
255
255
255
255
255
255
255
255
255
255
255
255
255
255
255
255
255
255
255
255
255
255
255
255
255
255
255
255
255
255
255
255
255
255
255
255
255
255
255
255
255
255
255
255
255
255
255
255
255
255
255
255
255
255
255
255
255
255
255
255
255
255
255
255
255
255
255
255
255
255
255
255
255
255
255
255
255
255
255
255
255
255
255
255
255
255
255
255
255
255
255
255
255
255
255
255
255
255
255
255
255
255
255
255
255
255
255
255
255
255
255
255
255
255
255
255
255
255
255
255
255
255
255
255
255
255
255
255
255
255
255
255
255
255
255
255
255
