P2
# CREATOR: GIMP PNM Filter Version 1.1
156 60
255
255
255
255
255
255
255
255
255
255
255
255
255
255
255
255
255
255
255
255
255
255
255
255
255
255
255
255
255
255
255
255
255
255
255
255
255
255
255
255
255
255
255
255
255
255
255
255
255
255
255
255
255
255
255
255
255
255
255
255
255
255
255
255
255
255
255
255
255
255
255
255
255
255
255
255
255
255
255
255
255
255
255
255
255
255
255
255
255
255
255
255
255
255
255
255
255
255
255
255
255
255
255
255
255
255
255
255
255
255
255
255
255
255
255
255
255
255
255
255
255
255
255
255
255
255
255
255
255
255
255
255
255
255
255
255
255
255
255
255
255
255
255
255
255
255
255
255
255
255
255
255
255
255
255
255
255
255
255
255
255
255
255
255
255
255
255
255
255
255
255
255
255
255
255
255
255
255
255
255
255
255
255
255
255
255
255
255
255
255
255
255
255
255
255
255
255
255
255
255
255
255
255
255
255
255
255
255
255
255
255
255
255
255
255
255
255
255
255
255
255
255
255
255
255
255
255
255
255
255
255
255
255
255
255
255
255
255
255
255
255
255
255
255
255
255
255
255
255
255
255
255
255
255
255
255
255
255
255
255
255
255
255
255
255
255
255
255
255
255
255
255
255
255
255
255
255
255
255
255
255
255
255
255
255
255
255
255
255
255
255
255
255
255
255
255
255
255
255
255
255
255
255
255
255
255
255
255
255
255
255
255
255
255
255
255
255
255
255
255
255
255
255
255
255
255
255
255
255
255
255
255
255
255
255
255
255
255
255
255
255
255
255
255
255
255
255
255
255
255
255
255
255
255
255
255
255
255
255
255
255
255
255
255
255
255
255
255
255
255
255
255
255
255
255
255
255
255
255
255
255
255
255
255
255
255
255
255
255
255
255
255
255
255
255
255
255
255
255
255
255
255
255
255
255
255
255
255
255
255
255
255
255
255
255
255
255
255
255
255
255
255
255
255
255
255
255
255
255
255
255
255
255
255
255
255
255
255
255
255
255
255
255
255
255
255
255
255
255
255
255
255
255
255
255
255
255
255
255
255
255
255
255
255
255
255
255
255
255
255
255
255
255
255
255
255
255
255
255
255
255
255
255
255
255
255
255
255
255
255
255
255
255
255
255
255
255
255
255
255
255
254
251
221
146
81
32
0
0
0
6
40
90
159
234
250
254
255
255
255
255
255
255
255
255
255
255
255
255
255
255
255
255
255
255
255
255
255
255
255
255
255
255
255
255
255
255
255
255
255
255
255
255
255
255
255
255
255
255
255
255
255
255
255
255
255
255
255
255
255
255
255
255
255
255
255
255
255
255
255
255
255
255
255
255
255
255
255
255
255
255
255
255
255
255
255
255
255
255
255
255
255
255
255
255
255
255
255
255
255
255
255
255
255
255
255
255
255
255
255
255
255
255
255
255
255
255
255
255
255
255
255
255
255
255
255
255
255
255
255
255
255
255
255
255
255
255
255
255
255
255
255
255
255
255
255
236
181
63
0
0
0
0
0
0
0
0
0
0
0
0
85
198
243
255
255
255
255
255
255
255
255
255
255
255
255
255
255
255
255
255
255
255
255
255
255
255
255
255
255
255
255
255
255
255
255
255
255
255
255
255
255
255
255
255
255
255
255
255
255
255
255
255
255
255
255
255
255
255
255
255
255
255
255
255
255
255
255
255
255
255
255
255
255
255
255
255
255
255
255
255
255
255
255
255
255
255
255
255
255
255
255
255
255
255
255
255
255
255
255
255
255
255
255
255
255
255
255
255
255
255
255
255
255
255
255
255
255
255
255
255
255
255
255
255
255
255
255
255
255
255
255
255
255
255
255
255
255
255
255
250
191
68
0
0
0
0
0
0
0
0
0
0
0
0
0
0
0
0
88
207
253
255
255
255
255
255
255
255
255
255
255
255
255
255
255
255
255
255
255
255
255
255
255
255
255
255
255
255
255
255
255
255
255
255
255
255
255
255
255
255
255
255
255
255
255
255
255
255
255
255
255
255
255
255
255
255
255
255
255
255
255
255
255
255
255
255
255
255
255
255
255
255
255
255
255
255
255
255
255
255
255
255
255
255
255
255
255
255
255
255
255
255
255
255
255
255
255
255
255
255
255
255
255
255
255
255
255
255
255
255
255
255
255
255
255
255
255
255
255
255
255
255
255
255
255
255
255
255
255
255
255
255
255
255
239
132
6
0
0
0
0
0
0
0
0
0
0
0
0
0
0
0
0
0
0
26
154
248
255
255
255
255
255
255
255
255
255
255
255
255
255
255
255
255
255
255
255
255
255
255
255
255
255
255
255
255
255
255
255
255
255
255
255
255
255
255
255
255
255
255
255
255
255
255
255
255
255
255
255
255
255
255
255
255
255
255
255
255
255
255
255
255
255
255
255
255
255
255
255
255
255
255
255
255
255
255
255
255
255
255
255
255
255
255
255
255
255
255
255
255
255
255
255
255
255
255
255
255
255
255
255
255
255
255
255
255
255
255
255
255
255
255
255
255
255
255
255
255
255
255
255
255
255
255
255
255
255
255
255
225
95
0
0
0
0
0
0
0
0
29
58
68
70
52
21
0
0
0
0
0
0
0
9
121
249
255
255
255
255
255
255
255
255
255
255
255
255
255
255
255
255
255
255
255
255
255
255
255
255
255
255
255
255
255
255
255
255
255
255
255
255
255
255
255
255
255
255
255
255
255
255
255
255
255
255
255
255
255
255
255
255
255
255
255
255
255
255
255
255
255
255
255
255
255
255
255
255
255
255
255
255
255
255
255
255
255
255
255
255
255
255
255
255
255
255
255
255
255
255
255
255
255
255
255
255
255
255
255
255
255
255
255
255
255
255
255
255
255
255
255
255
255
255
255
255
255
255
255
255
255
255
255
255
255
232
85
0
0
0
0
0
0
20
110
174
202
218
224
226
215
198
166
91
0
0
0
0
0
0
2
116
255
255
255
255
255
255
255
255
255
255
255
255
255
255
255
255
255
255
255
255
255
255
255
255
255
255
255
255
255
255
255
255
255
255
255
255
255
255
255
255
255
255
255
255
255
255
255
255
255
255
255
255
255
255
255
255
255
255
255
255
255
255
255
255
255
255
255
255
255
255
255
255
255
255
255
255
255
255
255
255
255
255
255
255
255
255
255
255
255
255
255
255
255
255
255
255
255
255
255
255
255
255
255
255
255
255
255
255
255
255
255
255
255
255
255
255
255
255
255
255
255
255
255
255
255
255
255
255
245
112
0
0
0
0
0
0
108
215
244
255
255
255
255
255
255
255
255
239
205
83
0
0
0
0
0
0
147
255
255
255
255
255
255
255
255
255
255
255
255
255
255
255
255
255
255
255
255
255
255
255
255
255
255
255
255
255
255
255
255
255
255
255
255
255
255
255
255
255
255
255
255
255
255
255
255
255
255
255
255
255
255
255
255
255
255
255
255
255
255
255
255
255
255
255
255
255
255
255
255
255
255
255
255
255
255
255
255
255
255
255
255
255
255
255
255
255
255
255
255
255
255
255
255
255
255
255
255
255
255
255
255
255
255
255
255
255
255
255
255
255
255
255
255
255
255
255
255
255
255
255
255
255
255
255
167
0
0
0
0
0
13
180
253
255
255
255
255
255
255
255
255
255
255
255
255
245
159
0
0
0
0
0
4
211
255
255
255
255
255
255
255
255
255
255
255
255
255
255
255
255
255
255
255
255
255
255
255
255
255
255
255
255
255
255
255
255
255
255
255
255
255
255
255
255
255
255
255
255
255
255
255
255
255
255
255
255
255
255
255
255
255
255
255
255
255
255
255
255
255
255
255
255
255
255
255
255
255
255
255
255
255
255
255
255
255
255
255
255
255
255
255
255
255
255
255
255
255
255
255
255
255
255
255
255
255
255
255
255
255
255
255
255
255
255
255
255
255
255
255
255
255
255
255
255
255
255
255
255
255
224
32
0
0
0
0
13
207
255
255
255
255
255
255
255
255
255
255
255
255
255
255
255
254
184
12
0
0
0
0
41
255
255
255
255
255
255
255
255
255
255
255
255
255
255
255
255
255
255
255
255
255
255
255
255
255
255
255
255
255
255
255
255
255
255
255
255
255
255
255
255
255
255
255
255
255
255
255
255
255
255
255
255
255
255
255
255
255
255
255
255
255
255
255
255
255
255
255
255
255
255
255
255
255
255
255
255
255
255
255
255
255
255
255
255
255
255
255
255
255
255
255
255
255
255
255
255
255
255
255
255
255
255
255
255
255
255
255
255
255
255
255
255
255
255
255
255
255
255
255
255
255
255
255
255
251
129
0
0
0
0
6
206
255
255
255
255
255
255
255
255
255
255
255
255
255
255
255
255
255
255
162
6
0
0
0
0
148
255
255
255
255
255
255
255
255
255
255
255
255
255
255
255
255
255
255
255
255
255
255
255
255
255
255
255
255
255
255
255
255
255
255
255
255
255
255
255
255
255
255
255
255
255
255
255
255
255
255
255
255
255
255
255
255
255
255
255
255
255
255
255
255
255
255
255
255
255
255
255
255
255
255
255
255
255
255
255
255
255
255
255
255
255
255
255
255
255
255
255
255
255
255
255
255
255
255
255
255
255
255
255
255
255
255
255
255
255
255
255
255
255
255
255
255
255
255
255
255
255
255
255
232
10
0
0
0
0
161
255
255
255
255
255
255
255
255
255
255
255
255
255
255
255
255
255
255
255
250
109
0
0
0
0
33
236
222
210
206
206
206
214
226
243
255
255
255
255
255
255
255
255
255
255
255
255
255
255
255
255
255
255
255
255
255
255
255
255
255
255
255
255
255
255
255
255
255
255
255
255
255
255
255
255
255
255
255
255
255
255
255
255
255
255
255
255
255
255
255
255
255
255
255
255
255
255
255
255
255
255
255
255
255
255
255
255
255
255
255
255
255
255
255
255
255
255
255
255
255
255
255
255
255
255
255
255
255
255
255
255
255
255
255
255
255
255
255
255
255
255
255
255
255
255
255
255
255
255
142
0
0
0
0
78
249
255
255
255
255
255
255
255
255
255
255
255
255
255
255
255
255
255
255
255
255
214
44
0
0
0
4
59
34
0
0
0
0
11
50
110
173
228
255
255
255
255
255
255
255
255
255
255
255
255
255
255
255
255
255
255
255
255
255
255
255
255
255
255
255
255
255
255
255
255
255
255
255
255
255
255
255
255
255
255
255
255
255
255
255
255
255
255
255
255
255
255
255
255
255
255
255
255
255
255
255
255
255
255
255
255
255
255
255
255
255
255
255
255
255
255
255
255
255
255
255
255
255
255
255
255
255
255
255
255
255
255
255
255
255
255
255
255
255
255
255
255
255
255
255
255
255
255
255
255
37
0
0
0
3
190
255
255
255
255
255
255
255
255
255
255
255
255
255
255
255
255
255
255
255
255
255
255
119
5
0
0
0
0
0
0
0
0
0
0
0
0
0
69
158
249
255
255
255
255
255
255
255
255
255
255
255
255
255
255
255
255
255
255
255
255
255
255
255
255
255
255
255
255
255
255
255
255
255
255
255
255
255
255
255
255
255
255
255
255
255
255
255
255
255
255
255
255
255
255
255
255
255
255
255
255
255
255
255
255
255
255
255
255
255
255
255
255
255
255
255
255
255
255
255
255
255
255
255
255
255
255
255
255
255
255
255
255
255
255
255
255
255
255
255
255
255
255
255
255
255
255
255
255
255
226
0
0
0
0
75
233
255
255
255
255
255
255
255
255
255
255
255
255
255
255
255
255
255
255
255
255
255
255
209
28
0
0
0
0
0
0
0
0
0
0
0
0
0
0
11
89
229
255
255
255
255
255
255
255
255
255
255
255
255
255
255
255
255
255
255
255
255
255
255
255
255
255
255
255
255
255
255
255
255
255
255
255
255
255
255
255
255
255
255
255
255
255
255
255
255
255
255
255
255
255
255
255
255
255
255
255
255
255
255
255
255
255
255
255
255
255
255
255
255
255
255
255
255
255
255
255
255
255
255
255
255
255
255
255
255
255
255
255
255
255
255
255
255
255
255
255
255
255
255
255
255
255
255
255
255
162
0
0
0
0
141
255
255
255
255
255
255
255
255
255
255
255
255
255
255
255
255
255
255
255
255
255
255
255
255
57
0
0
0
0
0
0
0
0
0
0
0
0
0
0
0
0
50
213
255
255
255
255
255
255
255
255
255
255
255
255
255
255
255
255
255
255
255
255
255
255
255
255
255
255
255
255
255
255
255
255
255
255
255
255
255
255
255
255
255
255
255
255
255
255
255
255
255
255
255
255
255
255
255
255
255
255
255
255
255
255
255
255
255
255
255
255
255
255
255
255
255
255
255
255
255
255
255
255
255
255
255
255
255
255
255
255
255
255
255
255
255
255
255
255
255
255
255
255
255
255
255
255
255
255
255
110
0
0
0
8
177
255
255
255
255
255
255
255
255
255
255
255
255
255
255
255
255
255
255
255
255
255
255
255
255
114
4
0
0
0
8
70
101
105
95
49
0
0
0
0
0
0
0
36
229
255
255
255
255
255
255
255
255
255
255
255
255
255
255
255
255
255
255
255
255
255
255
255
255
255
255
255
255
255
255
255
255
255
255
255
255
255
255
255
255
255
255
255
255
255
255
255
255
255
255
255
255
255
255
255
255
255
255
255
255
255
255
255
255
255
255
255
255
255
255
255
255
255
255
255
255
255
255
255
255
255
255
255
255
255
255
255
255
255
255
255
255
255
255
255
255
255
255
255
255
255
255
255
255
255
255
73
0
0
0
34
198
255
255
255
255
255
255
255
255
255
255
255
255
255
255
255
255
255
255
255
255
255
255
255
255
177
9
0
28
160
243
252
251
252
251
250
226
107
3
0
0
0
0
1
56
252
255
255
255
255
255
255
255
255
255
255
255
255
255
255
255
255
255
255
255
255
255
255
255
255
255
255
255
255
255
255
255
255
255
255
255
255
255
255
255
255
255
255
255
255
255
255
255
255
255
255
255
255
255
255
255
255
255
255
255
255
255
255
255
255
255
255
255
255
255
255
255
255
255
255
255
255
255
255
255
255
255
255
255
255
255
255
255
255
255
255
255
255
255
255
255
255
255
255
255
255
255
255
255
252
255
66
0
0
0
52
213
255
255
255
255
255
255
255
255
255
255
255
255
255
255
255
255
255
255
255
255
255
255
255
255
232
33
138
253
255
255
255
255
255
255
255
255
255
200
46
0
0
0
0
5
116
255
255
255
255
255
255
255
255
255
255
255
255
255
255
255
255
255
255
255
255
255
255
255
255
255
255
255
255
255
255
255
255
255
255
255
255
255
255
255
255
255
255
255
255
255
255
255
255
255
255
255
255
255
255
255
255
255
255
255
255
255
255
255
255
255
255
255
255
255
255
255
255
255
255
255
255
255
255
255
255
255
255
255
255
255
255
255
255
255
255
255
255
255
255
255
255
255
255
255
255
253
236
210
148
95
12
0
0
0
51
213
255
255
255
255
255
255
255
255
255
255
255
255
255
255
255
255
255
255
255
255
255
255
255
255
255
253
255
255
255
255
255
255
255
255
255
255
255
255
221
58
0
0
0
0
31
202
255
255
255
255
255
255
255
255
255
255
255
255
255
255
255
255
255
255
255
255
255
255
255
255
255
255
255
255
255
255
255
255
255
255
255
255
255
255
255
255
255
255
255
255
255
255
255
255
255
255
255
255
255
255
255
255
255
255
255
255
255
255
255
255
255
255
255
255
255
255
255
255
255
255
255
255
255
255
255
255
255
255
255
255
255
255
255
255
255
255
255
255
255
255
255
255
255
255
220
157
62
0
0
0
0
0
0
0
46
208
255
255
255
255
255
255
255
255
255
255
255
255
255
255
255
255
255
255
255
255
255
255
255
255
255
255
255
255
255
255
255
255
255
255
255
255
255
255
255
211
36
0
0
0
0
110
255
255
255
255
255
255
255
255
255
255
255
255
255
255
255
255
255
255
255
255
255
255
255
255
255
255
255
255
255
255
255
255
255
255
255
255
255
255
255
255
255
255
255
255
255
255
255
255
255
255
255
255
255
255
255
255
255
255
255
255
255
255
255
255
255
255
255
255
255
255
255
255
255
255
255
255
255
255
255
255
255
255
255
255
255
255
255
255
255
255
255
255
255
255
255
255
244
158
53
0
0
0
0
0
0
0
0
0
27
193
255
255
255
255
255
255
255
255
255
255
255
255
255
255
255
255
255
255
255
255
255
255
255
255
255
255
255
255
255
255
255
255
255
255
255
255
255
255
254
255
156
3
0
0
0
52
215
255
255
255
255
255
255
255
255
255
255
255
255
255
255
255
255
255
255
255
255
255
255
255
255
255
255
255
255
255
255
255
255
255
255
255
255
255
255
255
255
255
255
255
255
255
255
255
255
255
255
255
255
255
255
255
255
255
255
255
255
255
255
255
255
255
255
255
255
255
255
255
255
255
255
255
255
255
255
255
255
255
255
255
255
255
255
255
255
255
255
255
255
254
255
220
93
2
0
0
0
0
0
0
0
0
0
0
0
174
255
255
255
255
255
255
255
255
255
255
255
255
255
255
255
255
255
255
255
255
255
255
255
255
255
255
255
255
255
255
255
255
255
255
255
255
255
255
255
255
255
50
0
0
0
7
169
255
255
255
255
255
255
255
255
255
255
255
255
255
255
255
255
255
255
255
255
255
255
255
255
255
255
255
255
255
255
255
255
255
255
255
255
255
255
255
255
255
255
255
255
255
255
255
255
255
255
255
255
255
255
255
255
255
255
255
255
255
255
255
255
255
255
255
255
255
255
255
255
255
255
255
255
255
255
255
255
255
255
255
255
255
255
255
255
255
255
255
254
255
200
58
0
0
0
0
0
0
0
0
19
49
55
54
46
182
255
255
255
255
255
255
255
255
255
255
255
255
255
255
255
255
255
255
255
255
255
255
255
255
255
255
255
255
255
255
255
255
255
255
255
255
255
255
255
255
255
151
0
0
0
0
127
254
255
255
255
255
255
255
255
255
255
255
255
255
255
255
255
255
255
255
255
255
255
255
255
255
255
255
255
255
255
255
255
255
255
255
255
255
255
255
255
255
255
255
255
255
255
255
255
255
255
255
255
255
255
255
255
255
255
255
255
255
255
255
255
255
255
255
255
255
255
255
255
255
255
255
255
255
255
255
255
255
255
255
255
255
255
255
255
255
255
255
255
202
48
0
0
0
0
0
0
26
124
198
220
228
229
229
227
245
255
255
255
255
255
255
255
255
255
255
255
255
255
255
255
255
255
255
255
255
255
255
255
255
255
255
255
255
255
255
255
255
255
255
255
255
255
255
255
255
255
237
0
0
0
0
85
237
255
255
255
255
255
255
255
255
255
255
255
255
255
255
255
255
255
255
255
255
255
255
255
255
255
255
255
255
255
255
255
255
255
255
255
255
255
255
255
255
255
255
255
255
255
255
255
255
255
255
255
255
255
255
255
255
255
255
255
255
255
255
255
255
255
255
255
255
255
255
255
255
255
255
255
255
255
255
255
255
255
255
255
255
255
255
255
255
255
255
225
67
0
0
0
0
0
11
134
234
250
255
255
255
255
255
255
255
255
255
255
255
255
255
255
255
255
255
255
255
255
255
255
255
255
255
255
255
255
255
255
255
255
255
255
255
255
255
255
255
255
255
255
255
255
255
255
255
255
255
178
175
175
173
201
248
255
255
255
255
255
255
255
255
255
255
255
255
255
255
255
255
255
255
255
255
255
255
255
255
255
255
255
255
255
255
255
255
255
255
255
255
255
255
255
255
255
255
255
255
255
255
255
255
255
255
255
255
255
255
255
255
255
255
255
255
255
255
255
255
255
255
255
255
255
255
255
255
255
255
255
255
255
255
255
255
255
255
255
255
255
255
255
255
255
248
115
0
0
0
0
0
38
211
255
255
255
255
255
255
255
255
255
255
255
255
255
255
255
255
255
255
255
255
255
255
255
255
255
255
255
255
255
255
255
255
255
255
255
255
255
255
255
255
255
255
255
255
255
255
255
255
255
255
255
255
255
255
255
255
255
255
255
255
255
255
255
255
255
255
255
255
255
255
255
255
255
255
255
255
255
255
255
255
255
255
255
255
255
255
255
255
255
255
255
255
255
255
255
255
255
255
255
255
255
255
255
255
255
255
255
255
255
255
255
255
255
255
255
255
255
255
255
255
255
255
255
255
255
255
255
255
255
255
255
255
255
255
255
255
255
255
255
255
255
255
255
255
255
255
255
184
3
0
0
0
0
52
244
255
255
255
255
255
255
255
255
255
255
255
255
255
255
255
255
255
255
255
255
255
255
255
255
255
255
255
255
255
255
255
255
255
255
255
255
255
255
255
255
255
255
255
255
255
255
255
255
255
255
255
255
255
255
255
255
255
255
255
255
255
255
255
255
255
255
255
255
255
255
255
255
255
255
255
255
255
255
255
255
255
255
255
255
255
255
255
255
255
255
255
255
255
255
255
255
255
255
255
255
255
255
255
255
255
255
255
255
255
255
255
255
255
255
255
255
255
255
255
255
255
255
255
255
255
255
255
255
255
255
255
255
255
255
255
255
255
255
255
255
255
255
255
255
255
255
255
237
68
0
0
0
0
39
243
255
255
255
255
255
255
255
255
255
255
255
255
255
255
255
255
255
255
255
255
255
255
255
255
255
255
255
255
255
255
255
255
255
255
255
255
255
255
255
255
255
255
255
255
255
255
255
255
255
255
255
255
255
255
255
255
255
255
255
255
255
255
255
255
255
255
255
255
255
255
255
255
255
255
255
255
255
255
255
255
255
255
255
255
255
255
255
255
255
255
255
255
255
255
255
255
255
255
255
255
255
255
255
255
255
255
255
255
255
255
255
255
255
255
255
255
255
255
255
255
255
255
255
255
255
255
255
255
255
255
255
255
255
255
255
255
255
255
255
255
255
255
255
255
255
255
255
254
184
0
0
0
0
13
210
255
255
255
255
255
255
255
255
255
255
255
255
255
255
255
255
255
255
255
255
255
234
229
229
229
229
229
229
229
229
229
240
253
255
255
255
255
255
255
255
255
249
241
242
241
244
254
255
255
255
255
255
255
255
255
255
241
242
242
241
250
255
255
255
255
255
255
255
255
226
200
185
255
255
255
255
255
255
255
255
255
255
255
255
255
255
255
255
246
201
201
236
255
255
255
245
202
205
205
205
205
205
205
206
218
233
255
255
255
255
255
255
255
255
255
255
255
255
255
255
255
255
255
249
212
186
179
178
184
200
227
255
255
255
255
255
255
255
255
255
255
255
255
255
255
255
255
255
251
72
0
0
0
0
142
255
255
255
255
255
255
255
255
255
255
255
255
255
255
255
255
255
255
255
255
255
252
109
75
76
76
76
76
76
76
76
75
92
113
156
220
255
255
255
255
255
251
180
86
95
92
120
248
255
255
255
255
255
255
255
255
250
85
95
95
85
195
254
255
255
255
255
255
255
255
120
32
13
232
255
255
255
255
255
255
255
255
255
255
255
255
255
255
253
178
24
45
192
255
255
255
212
26
39
39
39
39
39
39
40
59
81
116
160
218
255
255
255
255
255
255
255
255
255
255
255
255
255
206
112
49
9
0
0
4
31
71
127
214
254
255
255
255
255
255
255
255
255
255
255
255
255
255
255
229
0
0
0
0
39
231
255
255
255
255
255
255
255
255
255
255
255
255
255
255
255
255
255
255
255
255
255
251
41
0
0
0
0
0
0
0
0
0
0
0
5
54
151
249
255
255
255
249
132
0
0
0
32
244
255
255
255
255
255
255
255
255
248
0
0
0
0
155
254
255
255
255
255
255
255
255
149
0
3
132
255
255
255
255
255
255
255
255
255
255
255
255
255
255
248
74
0
57
220
255
255
255
203
0
0
0
0
0
0
0
0
0
0
0
10
51
122
235
255
254
255
255
255
255
255
255
255
255
179
39
0
0
0
25
23
2
0
0
0
132
252
255
255
255
255
255
255
255
255
255
255
255
255
255
255
163
0
0
0
0
136
250
255
255
255
255
255
255
255
255
255
255
255
255
255
255
255
255
255
255
255
255
255
251
47
0
0
0
0
0
0
0
0
0
0
0
0
0
7
127
248
255
255
249
137
0
0
0
39
244
255
255
255
255
255
255
255
255
248
0
0
0
0
159
254
255
255
255
255
255
255
255
251
18
0
48
255
255
255
255
255
255
255
255
255
255
255
255
255
255
221
0
0
125
255
255
255
255
204
0
10
125
202
196
196
196
174
155
112
44
0
0
4
50
183
255
254
255
255
255
255
255
255
208
28
0
8
120
200
212
212
203
166
75
0
141
252
255
255
255
255
255
255
255
255
255
255
255
255
255
255
96
0
0
0
3
195
255
255
255
255
255
255
255
255
255
255
255
255
255
255
255
255
255
255
255
255
255
255
251
47
0
0
0
0
0
0
0
0
0
0
0
0
0
0
0
168
253
255
249
137
0
0
0
39
244
255
255
255
255
255
255
255
255
248
0
0
0
0
159
254
255
255
255
255
255
255
255
255
110
0
20
187
255
255
255
255
255
255
255
255
255
255
255
255
255
128
0
33
192
255
255
255
255
204
0
13
165
255
255
255
255
254
252
245
239
196
66
0
0
25
173
255
255
255
255
255
255
244
104
0
8
167
248
255
255
255
255
253
244
179
221
254
255
255
255
255
255
255
255
255
255
255
255
255
255
255
47
0
0
0
51
219
255
255
255
255
255
255
255
255
255
255
255
255
255
255
255
255
255
255
255
255
255
255
251
47
0
0
0
18
62
58
58
58
58
46
0
0
0
0
0
21
238
255
249
137
0
0
0
39
244
255
255
255
255
255
255
255
255
248
0
0
0
0
159
254
255
255
255
255
255
255
255
255
218
0
1
99
255
255
255
255
255
255
255
255
255
255
255
255
255
19
0
74
253
255
255
255
255
204
0
13
163
255
255
255
255
255
255
255
255
254
255
140
0
0
31
194
255
255
255
255
255
231
17
0
106
246
255
255
255
255
255
255
255
254
254
255
255
255
255
255
255
255
255
255
255
255
255
255
255
255
13
0
0
0
83
233
255
255
255
255
255
255
255
255
255
255
255
255
255
255
255
255
255
255
255
255
255
255
251
47
0
0
1
80
255
255
255
255
255
255
213
50
0
0
0
0
158
255
249
137
0
0
0
39
244
255
255
255
255
255
255
255
255
248
0
0
0
0
159
254
255
255
255
255
255
255
255
255
255
60
0
48
223
255
255
255
255
255
255
255
255
255
255
255
179
0
12
145
255
255
255
255
255
204
0
13
163
255
255
255
255
255
255
255
255
255
255
255
161
0
0
70
239
255
255
255
255
220
0
0
155
255
255
255
255
255
255
255
255
255
255
255
255
255
255
255
255
255
255
255
255
255
255
255
255
255
0
0
0
0
102
242
255
255
255
255
255
255
255
255
255
255
255
255
255
255
255
255
255
255
255
255
255
255
251
47
0
0
1
78
255
255
255
255
255
255
255
219
27
0
0
0
76
255
249
137
0
0
0
39
244
255
255
255
255
255
255
255
255
248
0
0
0
0
159
254
255
255
255
255
255
255
255
255
255
170
0
14
156
255
255
255
255
255
255
255
255
255
255
255
69
0
37
230
255
255
255
255
255
204
0
13
163
255
255
255
255
255
255
255
255
255
255
255
255
113
0
7
156
255
255
255
255
205
0
0
156
255
255
255
255
255
255
255
255
255
255
255
255
255
255
255
255
255
255
255
255
255
255
255
255
255
0
0
0
0
109
245
255
255
255
255
255
255
255
255
255
255
255
255
255
255
255
255
255
255
255
255
255
255
251
47
0
0
1
78
255
255
255
255
255
255
255
247
117
0
0
0
27
255
249
137
0
0
0
39
244
255
255
255
255
255
255
255
255
248
0
0
0
0
159
254
255
255
255
255
255
255
255
255
255
245
19
0
93
249
255
255
255
255
255
255
255
255
255
228
3
3
95
255
255
255
255
255
255
204
0
13
163
255
255
255
255
255
255
255
255
255
255
255
255
233
25
0
81
234
255
255
255
228
0
0
126
255
255
255
255
255
255
255
255
255
255
255
255
255
255
255
255
255
255
255
255
255
255
255
255
255
0
0
0
0
101
241
255
255
255
255
255
255
255
255
255
255
255
255
255
255
255
255
255
255
255
255
255
255
251
47
0
0
1
78
255
255
255
255
255
255
255
255
145
0
0
0
18
255
249
137
0
0
0
39
244
255
255
255
255
255
255
255
255
248
0
0
0
0
159
254
255
255
255
255
255
255
255
255
255
251
121
0
37
202
255
255
255
255
255
255
255
255
255
120
1
8
199
255
255
255
255
255
255
204
0
13
163
255
255
255
255
255
255
255
255
255
255
255
255
249
126
0
21
199
255
255
255
236
48
0
38
191
255
255
255
255
255
255
255
255
255
255
255
255
255
255
255
255
255
255
255
255
255
255
255
255
18
0
0
0
75
230
255
255
255
255
255
255
255
255
255
255
255
255
255
255
255
255
255
255
255
255
255
255
251
47
0
0
1
78
255
255
255
255
255
255
255
248
122
0
0
0
24
255
249
137
0
0
0
39
244
255
255
255
255
255
255
255
255
248
0
0
0
0
159
254
255
255
255
255
255
255
255
255
255
255
205
0
0
146
255
255
255
255
255
255
255
255
254
37
0
49
255
255
255
255
255
255
255
204
0
13
163
255
255
255
255
255
255
255
255
255
255
255
255
255
191
0
0
165
255
255
255
251
150
0
0
44
154
253
255
255
255
255
255
255
255
255
255
255
255
255
255
255
255
255
255
255
255
255
255
255
58
0
0
0
39
214
255
255
255
255
255
255
255
255
255
255
255
255
255
255
255
255
255
255
255
255
255
255
251
47
0
0
1
78
255
255
255
255
255
255
255
223
36
0
0
0
68
255
249
137
0
0
0
39
244
255
255
255
255
255
255
255
255
248
0
0
0
0
159
254
255
255
255
255
255
255
255
255
255
255
237
72
0
76
232
255
255
255
255
255
255
255
174
12
0
152
255
255
255
255
255
255
255
204
0
13
163
255
255
255
255
255
255
255
255
255
255
255
255
255
214
26
0
129
248
255
255
255
237
96
0
0
16
68
166
254
255
255
255
255
255
255
255
255
255
255
255
255
255
255
255
255
255
255
255
255
110
0
0
0
0
190
255
255
255
255
255
255
255
255
255
255
255
255
255
255
255
255
255
255
255
255
255
255
251
47
0
0
1
80
255
255
255
255
255
255
220
62
0
0
0
0
151
255
249
137
0
0
0
39
244
255
255
255
255
255
255
255
255
248
0
0
0
0
159
254
255
255
255
255
255
255
255
255
255
255
255
161
0
2
200
255
255
255
255
255
255
255
83
0
11
250
255
255
255
255
255
255
255
204
0
13
163
255
255
255
255
255
255
255
255
255
255
255
255
255
223
52
0
105
242
255
255
255
255
239
125
3
0
0
17
49
148
253
255
255
255
255
255
255
255
255
255
255
255
255
255
255
255
255
255
255
181
0
0
0
0
112
245
255
255
255
255
255
255
255
255
255
255
255
255
255
255
255
255
255
255
255
255
255
251
47
0
0
2
52
113
74
77
77
78
54
10
1
0
0
0
20
237
255
249
137
0
0
0
39
244
255
255
255
255
255
255
255
255
248
0
0
0
0
159
254
255
255
255
255
255
255
255
255
255
255
255
208
36
0
127
248
255
255
255
255
255
213
37
0
107
255
255
255
255
255
255
255
255
204
0
13
163
255
255
255
255
255
255
255
255
255
255
255
255
255
229
69
0
103
242
255
255
255
255
255
254
204
60
0
0
0
4
42
182
255
255
255
255
255
255
255
255
255
255
255
255
255
255
255
255
255
243
4
0
0
0
14
223
255
255
255
255
255
255
255
255
255
255
255
255
255
255
255
255
255
255
255
255
255
251
47
0
0
2
41
43
0
0
0
0
0
0
0
0
0
0
169
253
255
249
137
0
0
0
39
244
255
255
255
255
255
255
255
255
248
0
0
0
0
159
254
255
255
255
255
255
255
255
255
255
255
255
246
108
0
35
233
255
255
255
255
255
139
9
0
214
255
255
255
255
255
255
255
255
204
0
13
163
255
255
255
255
255
255
255
255
255
255
255
255
255
229
70
0
103
242
255
255
255
255
255
255
255
255
200
69
0
1
0
0
130
246
255
255
255
255
255
255
255
255
255
255
255
255
255
255
255
251
103
0
0
0
0
112
251
255
255
255
255
255
255
255
255
255
255
255
255
255
255
255
255
255
255
255
255
251
47
0
0
2
45
55
0
0
0
0
0
0
0
0
7
132
248
255
255
249
137
0
0
0
39
244
255
255
255
255
255
255
255
255
248
0
0
0
0
159
254
255
255
255
255
255
255
255
255
255
255
255
255
171
12
0
185
254
255
255
255
246
74
0
58
255
255
255
255
255
255
255
255
255
204
0
13
163
255
255
255
255
255
255
255
255
255
255
255
255
255
220
45
0
108
243
255
255
255
255
255
255
255
255
255
255
205
70
5
0
0
134
251
255
255
255
255
255
255
255
255
255
255
255
255
255
255
255
203
0
0
0
0
0
184
255
255
255
255
255
255
255
255
255
255
255
255
255
255
255
255
255
255
255
255
251
47
0
0
1
74
169
4
0
0
0
0
1
20
54
168
255
255
255
255
249
137
0
0
0
39
244
255
255
255
255
255
255
255
255
248
0
0
0
0
159
254
255
255
255
255
255
255
255
255
255
255
255
255
228
63
0
80
254
255
255
255
186
27
0
168
254
255
255
255
255
255
255
255
255
204
0
13
163
255
255
255
255
255
255
255
255
255
255
255
255
255
213
22
0
142
251
255
255
255
255
255
255
255
255
255
255
255
255
151
21
0
0
205
255
255
255
255
255
255
255
255
255
255
255
255
255
255
255
244
97
0
0
0
0
22
204
255
255
255
255
255
255
255
255
255
255
255
255
255
255
255
255
255
255
255
251
47
0
0
1
80
255
118
2
0
0
0
5
105
251
255
255
255
255
255
249
136
0
0
0
39
244
255
255
255
255
255
255
255
255
248
0
0
0
0
159
254
255
255
255
255
255
255
255
255
255
255
255
255
255
119
0
0
231
255
255
255
127
0
22
235
255
255
255
255
255
255
255
255
255
204
0
13
163
255
255
255
255
255
255
255
255
255
255
255
255
255
184
0
0
178
255
255
255
255
255
255
255
255
255
255
255
255
255
255
146
12
0
92
255
255
255
255
255
255
255
255
255
255
255
255
255
255
255
255
201
25
0
0
0
0
39
189
255
255
255
255
255
255
255
255
255
255
255
255
255
255
255
255
255
255
251
47
0
0
1
78
255
237
82
0
0
0
1
51
213
255
255
255
255
255
250
138
0
0
0
41
244
255
255
255
255
255
255
255
255
250
0
0
0
0
157
253
255
255
255
255
255
255
255
255
255
255
255
255
255
194
28
0
134
255
255
223
62
0
118
248
255
255
255
255
255
255
255
255
255
204
0
13
163
255
255
255
255
255
255
255
255
255
255
255
255
248
109
0
38
209
255
255
255
255
255
255
255
255
255
255
255
255
255
255
245
57
0
18
255
255
255
255
255
255
255
255
255
255
255
255
255
255
255
255
253
139
2
0
0
0
0
31
146
252
255
255
255
255
255
255
255
255
255
255
255
255
255
255
255
255
251
47
0
0
1
78
255
255
223
48
0
0
0
0
71
228
255
255
255
255
250
139
0
0
0
21
250
255
255
255
255
255
255
255
255
239
0
0
0
0
174
255
255
255
255
255
255
255
255
255
255
255
255
255
255
255
70
0
28
255
255
181
0
1
194
255
255
255
255
255
255
255
255
255
255
204
0
13
163
255
255
255
255
255
255
255
255
255
255
255
255
222
15
0
103
246
255
255
255
255
255
255
255
255
255
255
255
255
255
255
255
89
0
0
255
255
255
255
255
255
255
255
255
255
255
255
255
255
255
255
255
244
92
0
0
0
0
0
10
69
175
255
255
255
255
255
255
255
255
255
255
255
255
255
255
255
255
48
0
0
1
78
255
255
255
208
17
0
0
0
0
104
243
255
255
255
254
169
0
0
0
0
167
255
255
255
255
255
255
255
255
118
0
0
0
0
193
255
255
255
255
255
255
255
255
255
255
255
255
255
255
255
151
10
0
185
249
108
0
72
231
255
255
255
255
255
255
255
255
255
255
204
0
13
163
255
255
255
255
255
255
255
255
255
255
255
255
80
0
23
180
255
255
255
255
255
255
255
255
255
255
255
255
255
255
255
255
86
0
0
255
255
255
255
255
255
255
255
255
255
255
255
255
255
255
255
255
255
241
74
0
0
0
0
0
0
11
40
114
179
209
208
208
208
208
208
208
208
208
208
208
210
205
38
0
0
1
78
255
255
255
255
184
0
0
0
0
0
142
252
255
255
255
207
13
0
0
0
12
144
255
255
255
255
255
255
114
6
0
0
0
49
217
255
255
255
255
255
255
255
255
255
255
255
255
255
255
255
245
25
0
78
240
23
0
150
255
255
255
255
255
255
255
255
255
255
255
204
0
13
163
255
255
255
255
255
255
255
255
255
255
255
103
0
0
101
255
255
255
255
255
255
255
255
255
255
255
255
255
255
255
255
243
57
0
33
255
255
255
255
255
255
255
255
255
255
255
255
255
255
255
255
255
255
255
248
73
0
0
0
0
0
0
0
2
3
3
3
3
3
3
3
3
3
3
3
3
3
3
1
0
0
1
78
255
255
255
255
255
149
0
0
0
0
0
179
254
255
255
241
102
0
0
0
0
2
25
103
136
132
91
17
2
0
0
0
0
133
255
255
255
255
255
255
255
255
255
255
255
255
255
255
255
255
255
97
1
11
142
0
37
201
255
255
255
255
255
255
255
255
255
255
255
204
0
13
163
255
255
255
255
255
255
255
255
255
247
86
1
0
55
242
255
255
255
255
255
247
249
255
255
255
255
255
255
255
255
255
152
12
0
116
255
255
255
255
255
255
255
255
255
255
255
255
255
255
255
255
255
255
255
255
255
117
6
0
0
0
0
0
0
0
0
0
0
0
0
0
0
0
0
0
0
0
0
0
0
0
1
78
255
255
255
255
255
255
104
0
0
0
0
11
214
255
255
255
202
38
0
0
0
0
0
0
0
0
0
0
0
0
0
0
68
226
255
255
255
255
255
255
255
255
255
255
255
255
255
255
255
255
255
205
5
0
2
0
96
248
255
255
255
255
255
255
255
255
255
255
255
204
0
13
160
255
250
250
250
249
248
247
228
139
16
0
3
51
229
255
255
255
255
255
254
158
33
185
246
249
252
254
254
252
250
178
28
0
4
228
255
255
255
255
255
255
255
255
255
255
255
255
255
255
255
255
255
255
255
255
255
255
197
56
14
0
0
0
0
0
0
0
0
0
0
0
0
0
0
0
0
0
0
0
0
0
1
78
255
255
255
255
255
255
247
70
0
0
0
0
34
231
255
255
255
177
38
0
0
0
0
0
0
0
0
0
0
0
1
61
216
255
255
255
255
255
255
255
255
255
255
255
255
255
255
255
255
255
255
255
48
0
0
14
162
255
255
255
255
255
255
255
255
255
255
255
255
204
0
7
82
132
128
128
128
103
88
40
0
0
0
19
93
251
255
255
255
255
255
255
253
122
0
0
32
107
158
185
185
156
74
0
0
4
160
254
255
255
255
255
255
255
255
255
255
255
255
255
255
255
255
255
255
255
255
255
255
255
255
255
167
79
40
12
0
0
0
0
0
0
0
0
0
0
0
0
0
0
0
0
0
0
0
75
255
255
255
255
255
255
255
225
47
0
0
0
0
61
235
255
255
255
207
83
27
0
0
0
0
0
0
0
0
36
101
231
255
255
255
255
255
255
255
255
255
255
255
255
255
255
255
255
255
255
255
255
164
0
0
53
229
255
255
255
255
255
255
255
255
255
255
255
255
203
0
0
0
0
0
0
0
0
0
0
13
40
85
189
255
255
255
255
255
255
255
255
254
156
38
9
0
0
0
0
0
0
0
1
39
159
255
255
255
255
255
255
255
255
255
255
255
255
255
255
255
255
255
255
255
255
255
255
255
255
255
255
255
255
210
152
107
72
54
54
54
54
54
54
54
54
54
54
54
54
54
54
54
54
55
116
255
255
255
255
255
255
255
255
190
61
53
54
54
48
149
255
255
255
255
255
181
110
52
9
0
0
16
63
124
198
255
255
255
255
255
255
255
255
255
255
255
255
255
255
255
255
255
255
255
255
255
255
247
32
27
119
255
255
255
255
255
255
255
255
255
255
255
255
255
215
42
54
54
54
54
54
54
60
88
118
156
211
255
255
255
255
255
255
255
255
255
255
255
255
220
149
92
42
4
0
0
11
57
127
215
255
255
255
255
255
255
255
255
255
255
255
255
255
255
255
255
255
255
255
255
255
255
255
255
255
255
255
255
255
255
255
255
255
255
255
255
255
255
255
255
255
255
255
255
255
255
255
255
255
255
255
255
255
255
255
255
255
255
255
255
255
255
255
255
255
255
255
255
255
255
255
255
255
255
255
255
255
255
255
255
255
255
255
255
255
255
255
255
255
255
255
255
255
255
255
255
255
255
255
255
255
255
255
255
255
255
255
255
255
255
255
255
255
255
255
255
255
255
255
255
255
255
255
255
255
255
255
255
255
255
255
255
255
255
255
255
255
255
255
255
255
255
255
255
255
255
255
255
255
255
255
255
255
255
255
255
255
255
255
255
255
255
255
255
255
255
255
255
255
255
255
255
255
255
255
255
255
255
255
255
255
255
255
255
255
255
255
255
255
255
255
255
255
255
255
255
255
255
255
255
255
255
255
255
255
255
255
255
255
255
255
255
255
255
255
255
255
255
255
255
255
255
255
255
255
255
255
255
255
255
255
255
255
255
255
255
255
255
255
255
255
255
255
255
255
255
255
255
255
255
255
255
255
255
255
255
255
255
255
255
255
255
255
255
255
255
255
255
255
255
255
255
255
255
255
255
255
255
255
255
255
255
255
255
255
255
255
255
255
255
255
255
255
255
255
255
255
255
255
255
255
255
255
255
255
255
255
255
255
255
255
255
255
255
255
255
255
255
255
255
255
255
